<svg xmlns="http://www.w3.org/2000/svg" xmlns:xlink="http://www.w3.org/1999/xlink" width="34px" height="26px" viewBox="0 0 34 26" version="1.1">
    <g id="Notifications-❤️" stroke="none" stroke-width="1" fill-rule="evenodd">
        <g id="Notif---Error-DS" transform="translate(-32.000000, -27.000000)">
            <g id="content" transform="translate(0.000000, 21.000000)">
                <g id="side_nav" transform="translate(0.000000, 6.000000)">
                    <g id="main_logo" transform="translate(32.000000, 0.000000)">
                        <path d="M28.4758766,17.355336 C24.6285253,19.5840465 21.2002314,22.7762321 21.2002314,22.7762321 L20.8980157,22.0304898 C21.185907,21.4962352 21.5979427,20.8575142 22.0613775,20.1242625 C22.8674731,18.8490915 24.1049844,17.3996207 25.8312088,16.1965542 C26.3061592,15.8655548 26.8204314,15.5493169 27.3698123,15.265157 L28.4758766,17.355336 Z M8.764282,20.2689541 C9.21339243,20.9425919 9.60436287,21.5495187 9.92202635,22.0335273 L9.57122026,22.7761469 C9.57122026,22.7761469 7.007162,20.3893175 3.82575243,18.3022612 L3.82631417,18.3022612 L4.96552113,16.1405454 C6.62152809,17.3166437 7.84246809,18.8856264 8.764282,20.2689541 Z" id="shadow"/>
                        <path d="M10.4839059,5.36894926 L8.78295983,8.65079203 C10.1479859,9.53985685 11.3523546,10.6233 12.372192,11.7067432 L14.2158198,8.13458784 C14.3669277,7.83116798 14.6781311,7.63929953 15.0188259,7.63929953 L15.7603216,7.63929953 C16.1012972,7.63929953 16.4125007,7.83116798 16.5636085,8.13458784 L18.3645442,11.6208486 C19.4649911,10.5008723 20.6870546,9.51224788 22.0037711,8.67115017 L20.292152,5.36894926 C19.1178363,3.1036188 18.028905,2.55478581 16.4301955,2.33475063 C16.1498877,2.29626539 15.7117311,2.26837754 15.3878885,2.26837754 C15.0643268,2.26837754 14.6261703,2.29626539 14.3458624,2.33475063 C12.2736068,2.62032227 11.3897103,3.62121739 10.4839059,5.36894926 Z M15.3600824,15.5153875 C15.8768824,14.648633 16.450699,13.8259413 17.079285,13.0542843 L15.3895737,9.65865911 L13.6450929,13.1644414 C14.3638381,14.0512752 14.9413059,14.8745246 15.3600824,15.5153875 Z M7.15869113,9.74483259 L6.79103287,9.53372152 C6.58347026,9.41464038 6.50679287,9.15472557 6.616332,8.94305676 L8.89081374,4.55490277 L8.89109461,4.55490277 C9.9848007,2.44462878 11.289159,0.959600505 14.1001016,0.572795956 C14.4624233,0.522876695 14.979785,0.489411269 15.3878885,0.489411269 C15.7962729,0.489411269 16.3136346,0.522876695 16.6759563,0.572795956 C19.486899,0.959600505 20.7912572,2.44462878 21.8849633,4.55490277 L23.5530477,7.77260348 C26.2864703,6.33944661 29.3479485,5.5036476 32.5346946,5.39823151 C33.0849181,5.3801044 33.5413311,5.86367981 33.4483633,6.43677523 C33.3787077,6.86429604 32.986052,7.16241721 32.5501424,7.17775553 C25.7382129,7.41926436 19.5517798,11.3012538 16.3964911,17.3183374 C16.3897503,17.3314447 16.3813242,17.3428787 16.3737407,17.3548705 C16.3745833,17.3554282 16.3748642,17.3557071 16.3754259,17.3562649 C16.3678424,17.3693721 16.3582929,17.3808062 16.3501477,17.3933557 C16.3397555,17.4092518 16.3296442,17.4251479 16.3184094,17.4399284 C16.1052294,17.7374918 15.759479,17.9190418 15.3898546,17.9190418 L15.3862033,17.9190418 C15.0463511,17.9190418 14.7250363,17.7642642 14.5143842,17.4996084 L14.4003511,17.355986 C13.6810442,16.1336613 11.0330059,11.9711201 7.15869113,9.74483259 Z M32.5217465,11.7940043 C33.0775874,11.7672319 33.5368091,12.2466242 33.450863,12.8225084 C33.3868248,13.2508658 32.9978204,13.5503814 32.5621917,13.5732494 C30.7654691,13.6669526 28.9926204,14.1750693 27.3697561,15.0050119 C27.4026178,15.0652497 27.4374457,15.1299495 27.4773291,15.2030157 C27.9840178,16.1375377 28.8628587,17.7712082 30.0894161,20.0582912 C30.7393483,21.2708552 30.7483361,22.5160479 30.1135709,23.565189 C29.51251,24.5596699 28.3803248,25.227584 27.29673,25.227584 C27.29673,25.227584 25.5893239,25.2286996 25.5250048,25.2286996 C24.2012665,25.2286996 22.32253,25.1093395 21.189783,22.3584815 L20.8979596,21.6512455 C20.4808683,22.2658938 20.0303535,22.8730124 19.6124196,23.4237976 C18.2726717,25.1888199 16.7318213,25.2286996 15.4760535,25.2286996 L15.2988248,25.2286996 C14.0441804,25.2286996 12.50333,25.1890988 11.163863,23.4237976 C10.7234596,22.8434513 10.3153561,22.2452568 9.92185783,21.6543132 L9.57723087,22.3807918 C8.44336043,25.1098973 6.57136478,25.2286996 5.25099696,25.2286996 C5.18667783,25.2286996 3.47927174,25.227584 3.47927174,25.227584 C2.39567696,25.227584 1.26349174,24.5596699 0.66243087,23.565189 C0.0279465217,22.5160479 0.0366534783,21.2708552 0.686585652,20.0582912 L2.33416652,16.986444 L2.33416652,16.9861651 L3.99859957,13.8828046 C4.11600304,13.663885 4.39097435,13.5793848 4.60949087,13.6998603 C6.28178826,14.6221117 8.79416652,16.5993606 11.0759509,20.1589664 C11.5711239,20.9320177 12.0595561,21.6484567 12.5946126,22.3531828 C13.4279526,23.4514066 14.2494961,23.4508488 15.3872987,23.4497333 C16.5253822,23.450291 17.34833,23.4511277 18.18167,22.3531828 C18.8456457,21.4780619 19.5947248,20.4593186 20.1129291,19.5418082 C22.6340143,15.0772415 27.5048543,12.035792 32.5217465,11.7940043 Z M28.5078396,20.8943691 C26.950137,17.9895702 26.196283,16.5921097 25.8314335,15.9200124 C24.3425439,16.9409868 23.043803,18.251716 22.0613213,19.778576 L22.8477561,21.6847109 C23.5782978,23.4586574 24.4709013,23.455032 25.7056039,23.4491755 L27.29673,23.4486178 C27.6834874,23.4486178 28.2637639,23.1683448 28.5777761,22.6493518 C28.8842048,22.1429084 28.8606117,21.5522436 28.5078396,20.8943691 Z M7.92824565,21.6852687 C7.93273957,21.6738347 8.52397,20.4269687 8.76439435,19.9208041 C7.74287174,18.4352181 6.63456043,17.0422197 4.96535261,15.8650734 L3.91574304,17.822243 C3.91574304,17.822243 3.91574304,17.8225219 3.91546217,17.8225219 L2.26816217,20.894648 C1.91539,21.5522436 1.89179696,22.1429084 2.19822565,22.6493518 C2.51223783,23.1683448 3.09251435,23.4486178 3.47927174,23.4486178 L5.07039783,23.4491755 C6.30650478,23.455032 7.19770391,23.4586574 7.92824565,21.6852687 Z" id="logo_symbol"/>
                    </g>
                </g>
            </g>
        </g>
    </g>
</svg>
